<?xml version="1.0" standalone="no"?>
<!DOCTYPE svg PUBLIC "-//W3C//DTD SVG 20010904//EN"
 "http://www.w3.org/TR/2001/REC-SVG-20010904/DTD/svg10.dtd">
<svg version="1.0" xmlns="http://www.w3.org/2000/svg"
 width="1024.000000pt" height="1024.000000pt" viewBox="0 0 1024.000000 1024.000000"
 preserveAspectRatio="xMidYMid meet">

<g transform="translate(0.000000,1024.000000) scale(0.100000,-0.100000)"
fill="#000000" stroke="none">
<path d="M5055 8801 c-51 -31 -324 -318 -436 -458 -237 -296 -415 -610 -500
-883 -13 -41 -24 -76 -25 -78 -1 -2 -57 35 -126 81 -262 176 -514 279 -868
355 -194 42 -465 79 -687 94 -227 15 -213 27 -213 -176 0 -295 56 -627 157
-940 72 -223 203 -506 308 -666 30 -46 52 -87 48 -90 -5 -4 -48 -19 -98 -35
-385 -117 -856 -388 -1223 -704 -179 -154 -179 -156 -59 -263 274 -247 613
-485 875 -617 103 -52 290 -129 402 -166 47 -15 86 -29 88 -30 2 -2 -20 -38
-48 -81 -150 -230 -319 -657 -384 -974 -30 -149 -58 -399 -63 -573 -7 -228
-11 -222 131 -213 194 12 404 38 556 67 484 94 769 204 1107 431 40 26 76 48
80 48 4 0 21 -39 36 -88 155 -475 402 -869 809 -1288 142 -146 156 -155 203
-130 40 22 238 223 346 351 289 344 456 634 588 1020 23 66 43 126 46 133 3 8
27 -3 72 -36 38 -27 96 -65 130 -86 91 -54 334 -169 447 -211 285 -105 732
-193 1086 -211 162 -9 155 -19 146 224 -14 391 -76 701 -213 1067 -55 146
-186 408 -257 516 l-24 35 158 53 c395 133 798 384 1193 744 123 113 124 122
35 207 -157 147 -423 349 -623 470 -199 121 -465 241 -682 307 -51 15 -93 32
-93 37 0 5 23 45 52 90 187 292 346 721 412 1118 45 266 62 621 30 652 -20 20
-72 20 -279 1 -644 -61 -1115 -203 -1482 -448 l-111 -75 -32 91 c-102 294
-283 607 -513 890 -120 148 -426 457 -452 457 -11 0 -33 -8 -50 -19z m79
-1041 c59 -22 57 15 54 -981 l-3 -911 -28 -24 c-40 -34 -90 -32 -128 5 l-29
29 0 914 c0 823 2 916 16 936 26 38 71 50 118 32z m-570 -113 c63 -82 177
-363 180 -440 1 -44 -29 -77 -70 -77 -29 0 -84 47 -109 94 -11 20 -22 36 -25
36 -10 0 -38 -165 -51 -293 -31 -311 55 -613 290 -1017 35 -61 61 -117 61
-133 0 -40 -43 -77 -90 -77 -32 0 -44 7 -79 45 -161 175 -332 546 -376 815
-22 135 -22 351 0 494 29 192 121 471 182 554 31 41 55 41 87 -1z m1138 10
c30 -34 105 -216 143 -349 51 -176 68 -320 62 -518 -12 -357 -117 -641 -359
-968 -61 -82 -120 -101 -177 -55 -39 32 -30 70 43 195 260 439 335 760 267
1153 -13 72 -25 134 -28 138 -3 4 -19 -16 -37 -45 -19 -33 -45 -60 -68 -73
l-37 -20 -28 21 c-47 35 -49 68 -13 175 41 122 132 311 164 344 31 31 42 31
68 2z m-2175 -298 c168 -59 296 -136 402 -241 97 -95 101 -105 101 -230 0 -60
-4 -108 -8 -108 -12 0 -543 538 -571 578 -12 17 -20 32 -17 32 2 0 44 -14 93
-31z m3167 -51 c-214 -225 -524 -541 -526 -537 -2 2 -1 59 2 126 l5 122 47 55
c59 68 182 160 279 210 75 37 250 105 258 99 2 -2 -27 -36 -65 -75z m-3559
-153 c42 -32 138 -119 448 -408 260 -242 267 -250 267 -287 0 -75 -77 -103
-143 -52 -119 91 -677 603 -709 651 -22 32 -23 60 -2 89 33 47 84 50 139 7z
m4053 2 c14 -13 22 -32 22 -53 0 -20 -9 -42 -22 -57 -67 -72 -633 -593 -702
-645 -39 -30 -90 -29 -121 3 -37 36 -33 75 13 121 41 43 514 480 630 584 96
86 128 94 180 47z m-4171 -621 c742 -214 1157 -441 1443 -791 113 -138 123
-174 65 -232 -26 -26 -40 -33 -57 -28 -13 3 -63 48 -113 100 -110 115 -238
225 -348 299 -110 74 -324 183 -469 240 -119 47 -337 111 -346 102 -8 -8 81
-108 223 -251 141 -143 264 -240 450 -355 66 -41 130 -84 143 -97 45 -45 19
-121 -49 -138 -56 -14 -256 78 -429 196 -196 134 -400 349 -572 602 -92 136
-188 315 -188 351 0 27 24 56 45 56 7 0 98 -24 202 -54z m4384 44 c32 -17 23
-64 -32 -172 -169 -328 -453 -659 -717 -835 -130 -86 -324 -180 -394 -189 -43
-6 -49 -4 -77 24 -36 35 -41 78 -13 111 9 12 74 56 144 99 231 140 303 196
485 378 162 163 211 219 202 229 -9 9 -297 -78 -404 -122 -125 -52 -305 -148
-430 -230 -109 -72 -154 -110 -278 -236 -128 -131 -151 -150 -179 -150 -64 0
-97 77 -62 146 31 61 143 194 236 282 263 248 670 440 1353 639 135 39 139 40
166 26z m-4358 -914 c42 -47 77 -87 77 -91 0 -9 -687 -2 -696 7 -4 4 4 17 17
28 79 66 314 135 474 139 l51 1 77 -84z m4423 48 c89 -23 192 -68 257 -112
l28 -19 -38 -6 c-61 -11 -655 -8 -651 2 2 5 38 46 82 92 l78 82 75 -7 c41 -4
117 -18 169 -32z m-2226 -173 c151 -57 255 -200 267 -366 14 -176 -81 -342
-235 -414 -255 -117 -553 43 -591 319 -31 224 115 434 331 480 60 13 169 3
228 -19z m-842 -337 c19 -13 22 -24 22 -83 0 -39 -5 -72 -12 -79 -9 -9 -255
-12 -1046 -12 l-1034 0 -29 29 c-55 56 -24 144 54 154 18 2 480 5 1027 5 887
2 998 0 1018 -14z m3499 -16 c36 -36 38 -97 5 -130 l-23 -23 -1041 -3 c-766
-2 -1044 1 -1054 9 -9 8 -14 34 -14 80 0 58 3 70 21 83 19 13 152 15 1050 13
l1029 -2 27 -27z m-3906 -297 c30 -30 37 -67 19 -100 -5 -10 -60 -46 -122 -81
-163 -92 -261 -156 -363 -241 -108 -91 -332 -322 -316 -327 39 -13 409 122
611 223 181 91 285 160 470 310 156 126 181 141 210 125 28 -15 60 -65 60 -93
0 -31 -89 -146 -186 -238 -216 -206 -494 -356 -954 -514 -124 -43 -310 -111
-413 -151 -104 -41 -195 -74 -202 -74 -8 0 -22 11 -30 24 -14 22 -14 28 4 74
47 118 196 358 300 482 219 262 440 434 720 561 126 57 152 60 192 20z m2411
-21 c205 -91 377 -209 536 -368 181 -182 336 -392 437 -594 57 -114 63 -136
43 -156 -19 -19 -58 -14 -134 18 -39 16 -181 67 -315 114 -375 129 -478 169
-642 249 -250 121 -418 238 -577 400 -129 132 -148 186 -86 246 45 44 60 39
165 -49 291 -247 487 -361 842 -494 117 -43 309 -99 316 -92 13 13 -190 216
-347 348 -79 65 -200 146 -329 218 -127 70 -152 100 -130 151 15 38 55 60 96
55 18 -3 74 -23 125 -46z m-3285 -176 c2 -6 -32 -48 -76 -94 l-79 -83 -94 8
c-51 4 -134 17 -183 30 -87 22 -265 100 -265 116 0 7 26 16 95 32 44 11 598 2
602 -9z m4596 -4 c20 -7 37 -16 37 -20 0 -11 -161 -87 -220 -105 -69 -20 -222
-45 -275 -45 -36 0 -46 7 -117 77 -78 77 -89 96 -65 107 6 3 145 4 307 2 214
-2 305 -6 333 -16z m-2895 -172 c12 -12 22 -30 22 -41 0 -11 -23 -63 -52 -116
-200 -371 -272 -568 -299 -819 -10 -87 -10 -137 -1 -220 14 -122 42 -272 51
-272 4 0 15 15 25 34 24 46 65 83 98 91 22 6 33 1 59 -24 26 -27 30 -36 24
-64 -19 -88 -126 -356 -172 -429 -18 -30 -30 -38 -52 -38 -37 0 -58 28 -104
140 -232 569 -180 1097 161 1616 69 105 118 163 146 174 25 9 63 -4 94 -32z
m696 -19 c155 -173 297 -462 363 -739 33 -142 42 -406 19 -558 -19 -125 -63
-281 -118 -418 -52 -133 -72 -164 -101 -164 -45 0 -86 68 -170 280 -65 162
-73 200 -53 239 34 64 106 49 158 -33 40 -64 37 -60 44 -54 9 10 41 208 49
299 12 152 -27 385 -95 568 -50 138 -88 218 -176 376 -103 187 -105 194 -64
229 51 43 89 36 144 -25z m-357 -63 l28 -24 3 -924 c2 -644 0 -934 -8 -960
-19 -66 -95 -88 -147 -44 l-28 24 -3 939 c-2 659 1 946 9 964 21 52 99 65 146
25z m-1332 -501 c17 -16 25 -35 25 -57 0 -28 -12 -44 -83 -113 -212 -204 -641
-601 -660 -612 -36 -20 -67 -15 -98 16 -28 28 -36 61 -23 94 11 30 712 672
749 688 36 14 65 9 90 -16z m2651 3 c59 -45 254 -217 419 -369 342 -316 337
-310 310 -374 -16 -40 -52 -60 -89 -51 -20 5 -544 478 -733 662 -52 50 -57 91
-18 129 30 31 73 32 111 3z m-2450 -419 c-3 -17 -6 -71 -6 -119 l0 -87 -77
-80 c-91 -92 -164 -148 -269 -205 -76 -41 -217 -98 -243 -98 -7 0 24 41 70 92
135 147 510 528 521 528 6 0 8 -13 4 -31z m2356 -174 c189 -186 392 -404 384
-412 -7 -7 -222 89 -291 129 -87 51 -190 134 -255 205 l-50 55 -1 91 c0 51 -2
103 -5 115 -2 13 0 22 5 20 6 -1 101 -93 213 -203z"/>
</g>
</svg>
